<?xml version="1.0" encoding="UTF-8"?>
<svg width="129px" height="34px" viewBox="0 0 129 34" version="1.1" xmlns="http://www.w3.org/2000/svg" xmlns:xlink="http://www.w3.org/1999/xlink">
    <!-- Generator: Sketch 52.6 (67491) - http://www.bohemiancoding.com/sketch -->
    <title>eballot-logo-dark</title>
    <desc>Created with Sketch.</desc>
    <g id="Page-1" stroke="none" stroke-width="1" fill="none" fill-rule="evenodd">
        <g id="eBallot_Homepage_md_2b" transform="translate(-233.000000, -16.000000)">
            <g id="TOP-NAV">
                <g id="eballot-logo-dark" transform="translate(233.000000, 16.000000)">
                    <path d="M10.7992608,34 C7.40775741,34 4.76000476,32.9543058 2.85600286,30.8629174 C0.952000952,28.771529 0,25.8137083 0,22.0492091 C0,18.314587 0.922250922,15.3268893 2.73700274,13.056239 C4.58150458,10.7855888 7.05075705,9.65026362 10.1745102,9.65026362 C12.9115129,9.65026362 15.0832651,10.6063269 16.6897667,12.5184534 C18.2665183,14.43058 19.0697691,17.029877 19.0697691,20.3462214 L19.0697691,22.0492091 L2.23125223,22.0492091 C2.26100226,25.2759227 3.004753,27.7557118 4.49225449,29.4586995 C5.95000595,31.1616872 8.06225806,32.0281195 10.7992608,32.0281195 C12.1380121,32.0281195 13.2982633,31.9384886 14.3097643,31.7592267 C15.3212653,31.5799649 16.6005166,31.1616872 18.1475181,30.5641476 L18.1475181,32.5061511 C16.8385168,33.0738137 15.6187656,33.4622144 14.4882645,33.6713533 C13.3577634,33.8804921 12.1380121,34 10.7992608,34 Z M10.1745102,11.5026362 C7.91350791,11.5026362 6.12850613,12.2495606 4.76000476,13.7434095 C3.39150339,15.2372583 2.61800262,17.3884007 2.38000238,20.1968366 L16.8087668,20.1968366 C16.8087668,17.4780316 16.2137662,15.3268893 15.0535151,13.8031634 C13.8635139,12.2794376 12.2272622,11.5026362 10.1745102,11.5026362 Z M26.031276,2.03163445 L34.6290346,2.03163445 C38.5262885,2.03163445 41.3525414,2.68892794 43.1970432,4.03339192 C45.011795,5.34797891 45.9340459,7.34973638 45.9340459,10.0386643 C45.9340459,11.8611599 45.3687954,13.3848858 44.2680443,14.6098418 C43.1672932,15.8347979 41.5310415,16.6115993 39.3890394,16.940246 L39.3890394,17.059754 C41.8880419,17.4481547 43.7325437,18.2249561 44.9225449,19.4499121 C46.1125461,20.6748682 46.7075467,22.3479789 46.7075467,24.5289982 C46.7075467,27.427065 45.7555458,29.6678383 43.8217938,31.2214411 C41.9177919,32.7750439 39.1807892,33.5817223 35.6702857,33.5817223 L26.0610261,33.5817223 L26.031276,2.03163445 Z M28.2030282,16.0738137 L35.1347851,16.0738137 C38.0800381,16.0738137 40.2220402,15.5659051 41.5607916,14.5799649 C42.8995429,13.5940246 43.5837936,12.0702988 43.5837936,9.94903339 C43.5837936,7.85764499 42.8400428,6.33391916 41.3227913,5.37785589 C39.8055398,4.42179262 37.5742876,3.94376098 34.5695346,3.94376098 L28.2327782,3.94376098 L28.2030282,16.0738137 Z M28.2030282,18.0158172 L28.2030282,31.6098418 L35.5810356,31.6098418 C41.3822914,31.6098418 44.2977943,29.2495606 44.2977943,24.4991213 C44.2977943,20.1669596 41.2335412,18.0158172 35.1050351,18.0158172 C35.1347851,18.0158172 28.2030282,18.0158172 28.2030282,18.0158172 Z M67.2350672,33.5518453 L66.6995667,29.8471002 L66.5210665,29.8471002 C65.3608154,31.370826 64.1410641,32.4165202 62.8915629,33.0439367 C61.6420616,33.6713533 60.1843102,34 58.4885585,34 C56.1978062,34 54.4128044,33.4024605 53.1335531,32.2372583 C51.8543019,31.0421793 51.2295512,29.4288225 51.2295512,27.3374341 C51.2295512,25.0369069 52.1815522,23.2741652 54.0855541,22.0193322 C55.989556,20.7644991 58.7265587,20.0773286 62.3263123,20.0175747 L66.7590668,19.8980668 L66.7590668,18.314587 C66.7590668,16.0738137 66.3128163,14.400703 65.4203154,13.2653779 C64.5278145,12.1300527 63.0700631,11.5623902 61.047061,11.5623902 C58.8753089,11.5623902 56.6440566,12.1599297 54.3235543,13.3848858 L53.5203035,11.5325132 C56.0788061,10.3374341 58.6075586,9.71001757 61.1363111,9.71001757 C63.6948137,9.71001757 65.6285656,10.3673111 66.8780669,11.711775 C68.1573182,13.056239 68.7820688,15.1476274 68.7820688,17.9560633 L68.7820688,33.5518453 L67.2350672,33.5518453 Z M58.6373086,32.0579965 C61.1363111,32.0579965 63.0998131,31.340949 64.5278145,29.9068541 C65.955816,28.4727592 66.6995667,26.5008787 66.6995667,23.9314587 L66.6995667,21.6309315 L62.6238126,21.8101933 C59.3513094,21.9595782 57.001057,22.4973638 55.6028056,23.3637961 C54.2045542,24.2302285 53.5203035,25.6045694 53.5203035,27.427065 C53.5203035,28.8910369 53.966554,30.026362 54.8590549,30.8330404 C55.7515558,31.6397188 57.030807,32.0579965 58.6373086,32.0579965 Z M78.4805785,33.5518453 L76.3683264,33.5518453 L76.3683264,0 L78.4805785,0 L78.4805785,33.5518453 Z M88.4170884,33.5518453 L86.3048363,33.5518453 L86.3048363,0 L88.4170884,0 L88.4170884,33.5518453 Z M125.247625,32.1476274 C126.586377,32.1476274 127.776378,32.0281195 128.787879,31.7891037 L128.787879,33.4920914 C127.746628,33.8207381 126.556627,34 125.217875,34 C123.165123,34 121.647872,33.4622144 120.666121,32.3268893 C119.68437,31.2214411 119.178619,29.4885764 119.178619,27.0984183 L119.178619,11.9507909 L115.727616,11.9507909 L115.727616,10.6959578 L119.178619,9.71001757 L120.24962,4.42179262 L121.350371,4.42179262 L121.350371,10.0685413 L128.192878,10.0685413 L128.192878,11.9209139 L121.350371,11.9209139 L121.350371,26.7996485 C121.350371,28.5922671 121.677622,29.9367311 122.302372,30.8031634 C122.927123,31.6994728 123.908874,32.1476274 125.247625,32.1476274 Z" id="Shape" fill="#34495E" fill-rule="nonzero"></path>
                    <path d="M103.030303,34 C109.273993,34 114.363636,28.9103568 114.363636,22.6666667 C114.363636,16.4229765 109.273993,11.3333333 103.030303,11.3333333 C96.7866129,11.3333333 91.6969697,16.4229765 91.6969697,22.6666667 C91.6969697,28.9103568 96.7866129,34 103.030303,34 Z" id="Path" fill="#3498DB"></path>
                    <polygon id="Path" fill="#3498DB" points="113.333333 15.2984389 112.180791 16.4848485 111.272727 15.4545455 112.215716 14.4242424"></polygon>
                    <path d="M111.532196,15.4545455 L103.216297,25.0398068 L98.7634579,21.2814521 L97.8787879,22.2720262 L103.393231,26.7878788 L112.269421,16.4742541 L112.29891,16.4451196 C112.357888,16.4742541 111.768108,15.7458908 111.532196,15.4545455 Z" id="Path" fill="#FFFFFF"></path>
                </g>
            </g>
        </g>
    </g>
</svg>